<svg xmlns="http://www.w3.org/2000/svg" width="900" height="520" aria-label="Grouped bar chart comparing the percentage impact of Treatment A and Treatment B versus the control baseline across seven metrics." font-family="-apple-system, BlinkMacSystemFont, 'Segoe UI', Helvetica, Arial, sans-serif" role="img" viewBox="0 0 900 520"><rect width="900" height="520" x="0" y="0" fill="#fff"/><text x="450" y="30" fill="#24292f" font-size="18" font-weight="600" text-anchor="middle">Metric impact vs. control baseline (%)</text><text x="20" y="210" fill="#57606a" font-size="12" text-anchor="middle" transform="rotate(-90 20 210)">% change vs. control</text><g stroke="#e1e4e8" stroke-width="1"><line x1="70" x2="880" y1="60" y2="60"/><line x1="70" x2="880" y1="141.8" y2="141.8"/><line x1="70" x2="880" y1="196.4" y2="196.4"/><line x1="70" x2="880" y1="250.9" y2="250.9"/><line x1="70" x2="880" y1="305.5" y2="305.5"/><line x1="70" x2="880" y1="360" y2="360"/></g><g fill="#57606a" font-size="11" text-anchor="end"><text x="62" y="64">+1</text><text x="62" y="145.8">-2</text><text x="62" y="200.4">-4</text><text x="62" y="254.9">-6</text><text x="62" y="309.5">-8</text><text x="62" y="364">-10</text></g><line x1="70" x2="880" y1="87.3" y2="87.3" stroke="#24292f" stroke-width="1.5"/><text x="874" y="82" fill="#24292f" font-size="11" font-weight="600" text-anchor="end">Control = 0</text><rect width="34" height="10.9" x="90" y="87.3" fill="#0072b2"/><rect width="34" height="12" x="132" y="87.3" fill="#e69f00"/><text x="107" y="112" fill="#57606a" font-size="9.5" text-anchor="middle">-0.40</text><text x="149" y="123" fill="#57606a" font-size="9.5" text-anchor="middle">-0.44</text><rect width="34" height="13.1" x="206" y="87.3" fill="#0072b2"/><rect width="34" height="18.5" x="248" y="68.8" fill="#e69f00"/><text x="223" y="114" fill="#57606a" font-size="9.5" text-anchor="middle">-0.48</text><text x="265" y="63" fill="#1a7f37" font-size="9.5" text-anchor="middle">+0.68</text><rect width="34" height="78.5" x="321" y="87.3" fill="#0072b2"/><rect width="34" height="154.9" x="363" y="87.3" fill="#e69f00"/><text x="338" y="178" fill="#57606a" font-size="9.5" text-anchor="middle">-2.88</text><text x="380" y="255" fill="#57606a" font-size="9.5" text-anchor="middle">-5.68</text><rect width="34" height="52.6" x="437" y="87.3" fill="#0072b2"/><rect width="34" height="253.6" x="479" y="87.3" fill="#e69f00"/><text x="454" y="152" fill="#57606a" font-size="9.5" text-anchor="middle">-1.93</text><text x="496" y="354" fill="#57606a" font-size="9.5" text-anchor="middle">-9.30</text><rect width="34" height="69.3" x="553" y="87.3" fill="#0072b2"/><rect width="34" height="88.6" x="595" y="87.3" fill="#e69f00"/><text x="570" y="169" fill="#57606a" font-size="9.5" text-anchor="middle">-2.54</text><text x="612" y="188" fill="#57606a" font-size="9.5" text-anchor="middle">-3.25</text><rect width="34" height="141.5" x="668" y="87.3" fill="#0072b2"/><rect width="34" height="208.3" x="710" y="87.3" fill="#e69f00"/><text x="685" y="241" fill="#57606a" font-size="9.5" text-anchor="middle">-5.19</text><text x="727" y="308" fill="#57606a" font-size="9.5" text-anchor="middle">-7.64</text><rect width="34" height="87" x="784" y="87.3" fill="#0072b2"/><rect width="34" height="232.9" x="826" y="87.3" fill="#e69f00"/><text x="801" y="186" fill="#57606a" font-size="9.5" text-anchor="middle">-3.19</text><text x="843" y="333" fill="#57606a" font-size="9.5" text-anchor="middle">-8.54</text><g fill="#24292f" font-size="11" text-anchor="middle"><text x="128" y="382">10-min</text><text x="128" y="396">survival</text><text x="244" y="382">Commit</text><text x="244" y="396">survival</text><text x="359" y="382">p50 Time to</text><text x="359" y="396">First Edit</text><text x="475" y="382">p95 Time to</text><text x="475" y="396">First Edit</text><text x="591" y="382">p50 total</text><text x="591" y="396">tokens</text><text x="706" y="382">p95 total</text><text x="706" y="396">tokens</text><text x="822" y="382">Avg tool</text><text x="822" y="396">calls</text></g><g fill="#24292f" font-size="12"><rect width="16" height="16" x="300" y="470" fill="#0072b2"/><text x="322" y="483">Treatment A (PRPT_SRCH)</text><rect width="16" height="16" x="510" y="470" fill="#e69f00"/><text x="532" y="483">Treatment B (PRPT_LRG)</text></g><text x="450" y="440" fill="#57606a" font-size="11" text-anchor="middle">Bars below the control line are reductions. Lower is better for latency, tokens, and tool calls; higher is better for survival rates.</text></svg>